<svg width="175" height="40" viewBox="0 0 175 40" fill="none" xmlns="http://www.w3.org/2000/svg">
<path d="M1.76136 31V7.72727H17.9886V12.2955H7.38636V17.0682H17.1591V21.6477H7.38636V26.4318H17.9886V31H1.76136ZM27.0682 7.72727V31H21.5114V7.72727H27.0682Z" fill="#222222"/>
<path d="M48.6506 19.4432V23.7273H37.8778V19.4432H48.6506Z" fill="black"/>
<path d="M72.0284 14.7045C71.9527 13.8712 71.6155 13.2235 71.017 12.7614C70.4261 12.2917 69.5814 12.0568 68.483 12.0568C67.7557 12.0568 67.1496 12.1515 66.6648 12.3409C66.1799 12.5303 65.8163 12.7917 65.5739 13.125C65.3314 13.4508 65.2064 13.8258 65.1989 14.25C65.1837 14.5985 65.2519 14.9053 65.4034 15.1705C65.5625 15.4356 65.7898 15.6705 66.0852 15.875C66.3883 16.072 66.7519 16.2462 67.1761 16.3977C67.6004 16.5492 68.0777 16.6818 68.608 16.7955L70.608 17.25C71.7595 17.5 72.7746 17.8333 73.6534 18.25C74.5398 18.6667 75.2822 19.1629 75.8807 19.7386C76.4867 20.3144 76.9451 20.9773 77.2557 21.7273C77.5663 22.4773 77.7254 23.3182 77.733 24.25C77.7254 25.7197 77.3542 26.9811 76.6193 28.0341C75.8845 29.0871 74.8277 29.8939 73.4489 30.4545C72.0777 31.0152 70.4223 31.2955 68.483 31.2955C66.536 31.2955 64.839 31.0038 63.392 30.4205C61.9451 29.8371 60.8201 28.9508 60.017 27.7614C59.214 26.572 58.8011 25.0682 58.7784 23.25H64.1648C64.2102 24 64.411 24.625 64.767 25.125C65.1231 25.625 65.6117 26.0038 66.233 26.2614C66.8617 26.5189 67.589 26.6477 68.4148 26.6477C69.1723 26.6477 69.8163 26.5455 70.3466 26.3409C70.8845 26.1364 71.2973 25.8523 71.5852 25.4886C71.8731 25.125 72.0208 24.7083 72.0284 24.2386C72.0208 23.7992 71.8845 23.4242 71.6193 23.1136C71.3542 22.7955 70.9451 22.5227 70.392 22.2955C69.8466 22.0606 69.1496 21.8447 68.3011 21.6477L65.8693 21.0795C63.8542 20.6174 62.267 19.8712 61.108 18.8409C59.9489 17.803 59.3731 16.4015 59.3807 14.6364C59.3731 13.197 59.7595 11.9356 60.5398 10.8523C61.3201 9.76894 62.3996 8.92424 63.7784 8.31818C65.1572 7.71212 66.7292 7.40909 68.4943 7.40909C70.2973 7.40909 71.8617 7.71591 73.1875 8.32954C74.5208 8.93561 75.5549 9.78788 76.2898 10.8864C77.0246 11.9848 77.3996 13.2576 77.4148 14.7045H72.0284ZM86.1307 21.0455V31H80.5739V7.72727H85.9489V16.75H86.142C86.536 15.6742 87.1799 14.8333 88.0739 14.2273C88.9754 13.6212 90.0777 13.3182 91.3807 13.3182C92.608 13.3182 93.6761 13.5909 94.5852 14.1364C95.4943 14.6742 96.1989 15.4356 96.6989 16.4205C97.2064 17.4053 97.4564 18.5568 97.4489 19.875V31H91.892V20.9659C91.8996 19.9962 91.6572 19.2386 91.1648 18.6932C90.6723 18.1477 89.9792 17.875 89.0852 17.875C88.5019 17.875 87.9867 18.0038 87.5398 18.2614C87.1004 18.5114 86.7557 18.8712 86.5057 19.3409C86.2633 19.8106 86.1383 20.3788 86.1307 21.0455ZM109.065 31.3295C107.232 31.3295 105.656 30.9545 104.338 30.2045C103.027 29.447 102.016 28.3939 101.304 27.0455C100.599 25.6894 100.247 24.1174 100.247 22.3295C100.247 20.5341 100.599 18.9621 101.304 17.6136C102.016 16.2576 103.027 15.2045 104.338 14.4545C105.656 13.697 107.232 13.3182 109.065 13.3182C110.899 13.3182 112.471 13.697 113.781 14.4545C115.099 15.2045 116.111 16.2576 116.815 17.6136C117.527 18.9621 117.884 20.5341 117.884 22.3295C117.884 24.1174 117.527 25.6894 116.815 27.0455C116.111 28.3939 115.099 29.447 113.781 30.2045C112.471 30.9545 110.899 31.3295 109.065 31.3295ZM109.099 27.1364C109.766 27.1364 110.33 26.9318 110.793 26.5227C111.255 26.1136 111.607 25.5455 111.849 24.8182C112.099 24.0909 112.224 23.25 112.224 22.2955C112.224 21.3258 112.099 20.4773 111.849 19.75C111.607 19.0227 111.255 18.4545 110.793 18.0455C110.33 17.6364 109.766 17.4318 109.099 17.4318C108.41 17.4318 107.827 17.6364 107.349 18.0455C106.88 18.4545 106.52 19.0227 106.27 19.75C106.027 20.4773 105.906 21.3258 105.906 22.2955C105.906 23.25 106.027 24.0909 106.27 24.8182C106.52 25.5455 106.88 26.1136 107.349 26.5227C107.827 26.9318 108.41 27.1364 109.099 27.1364ZM120.73 31V7.72727H126.287V16.5341H126.401C126.628 16.0038 126.95 15.4924 127.366 15C127.791 14.5076 128.329 14.1061 128.98 13.7955C129.639 13.4773 130.427 13.3182 131.344 13.3182C132.556 13.3182 133.688 13.6364 134.741 14.2727C135.802 14.9091 136.658 15.8902 137.31 17.2159C137.961 18.5417 138.287 20.2311 138.287 22.2841C138.287 24.2614 137.973 25.9167 137.344 27.25C136.723 28.5833 135.882 29.5833 134.821 30.25C133.768 30.9167 132.598 31.25 131.31 31.25C130.431 31.25 129.67 31.1061 129.026 30.8182C128.382 30.5303 127.84 30.1515 127.401 29.6818C126.969 29.2121 126.635 28.7083 126.401 28.1705H126.23V31H120.73ZM126.173 22.2727C126.173 23.2121 126.298 24.0303 126.548 24.7273C126.806 25.4242 127.173 25.9659 127.651 26.3523C128.135 26.7311 128.715 26.9205 129.389 26.9205C130.071 26.9205 130.651 26.7311 131.128 26.3523C131.605 25.9659 131.965 25.4242 132.207 24.7273C132.457 24.0303 132.582 23.2121 132.582 22.2727C132.582 21.3333 132.457 20.5189 132.207 19.8295C131.965 19.1402 131.605 18.6061 131.128 18.2273C130.658 17.8485 130.079 17.6591 129.389 17.6591C128.707 17.6591 128.128 17.8447 127.651 18.2159C127.173 18.5871 126.806 19.1174 126.548 19.8068C126.298 20.4962 126.173 21.3182 126.173 22.2727ZM146.119 31.2955C145.006 31.2955 144.017 31.1098 143.153 30.7386C142.297 30.3598 141.619 29.7917 141.119 29.0341C140.627 28.2689 140.381 27.3106 140.381 26.1591C140.381 25.1894 140.551 24.3712 140.892 23.7045C141.233 23.0379 141.703 22.4962 142.301 22.0795C142.9 21.6629 143.589 21.3485 144.369 21.1364C145.15 20.9167 145.983 20.7689 146.869 20.6932C147.862 20.6023 148.661 20.5076 149.267 20.4091C149.873 20.303 150.313 20.1553 150.585 19.9659C150.866 19.7689 151.006 19.4924 151.006 19.1364V19.0795C151.006 18.4962 150.805 18.0455 150.403 17.7273C150.002 17.4091 149.46 17.25 148.778 17.25C148.044 17.25 147.453 17.4091 147.006 17.7273C146.559 18.0455 146.275 18.4848 146.153 19.0455L141.028 18.8636C141.18 17.803 141.57 16.8561 142.199 16.0227C142.835 15.1818 143.706 14.5227 144.812 14.0455C145.926 13.5606 147.263 13.3182 148.824 13.3182C149.938 13.3182 150.964 13.4508 151.903 13.7159C152.843 13.9735 153.661 14.3523 154.358 14.8523C155.055 15.3447 155.593 15.9508 155.972 16.6705C156.358 17.3902 156.551 18.2121 156.551 19.1364V31H151.324V28.5682H151.188C150.877 29.1591 150.479 29.6591 149.994 30.0682C149.517 30.4773 148.953 30.7841 148.301 30.9886C147.657 31.1932 146.93 31.2955 146.119 31.2955ZM147.835 27.6591C148.434 27.6591 148.972 27.5379 149.449 27.2955C149.934 27.053 150.32 26.7197 150.608 26.2955C150.896 25.8636 151.04 25.3636 151.04 24.7955V23.1364C150.881 23.2197 150.688 23.2955 150.46 23.3636C150.241 23.4318 149.998 23.4962 149.733 23.5568C149.468 23.6174 149.195 23.6705 148.915 23.7159C148.634 23.7614 148.366 23.803 148.108 23.8409C147.585 23.9242 147.138 24.053 146.767 24.2273C146.403 24.4015 146.123 24.6288 145.926 24.9091C145.737 25.1818 145.642 25.5076 145.642 25.8864C145.642 26.4621 145.847 26.9015 146.256 27.2045C146.672 27.5076 147.199 27.6591 147.835 27.6591Z" fill="#3FD0D4"/>
</svg>
